<?xml version="1.0" standalone="no"?>
<!DOCTYPE svg PUBLIC "-//W3C//DTD SVG 20010904//EN"
 "http://www.w3.org/TR/2001/REC-SVG-20010904/DTD/svg10.dtd">
<svg version="1.0" xmlns="http://www.w3.org/2000/svg"
 width="16.000000pt" height="16.000000pt" viewBox="0 0 16.000000 16.000000"
 preserveAspectRatio="xMidYMid meet">
<metadata>
Created by potrace 1.11, written by Peter Selinger 2001-2013
</metadata>
<g transform="translate(0.000000,16.000000) scale(0.006154,-0.006154)"
fill="#000000" stroke="none">
<path d="M1214 2581 c4 -5 -36 -10 -121 -14 -13 -1 -23 -4 -23 -8 0 -5 -9 -6
-20 -4 -11 2 -20 -1 -20 -6 0 -6 -5 -7 -10 -4 -6 4 -18 1 -27 -7 -14 -11 -16
-11 -9 0 7 11 4 12 -12 3 -12 -6 -25 -10 -29 -9 -4 1 -18 -3 -29 -10 -12 -6
-24 -8 -28 -5 -3 3 -6 1 -6 -6 0 -7 -4 -9 -10 -6 -5 3 -10 0 -10 -7 0 -11 -2
-11 -9 0 -6 10 -10 10 -21 -2 -7 -9 -16 -13 -21 -10 -5 3 -9 0 -9 -6 0 -6 -4
-9 -9 -5 -5 3 -12 1 -16 -5 -4 -6 -11 -8 -16 -5 -5 4 -9 3 -9 -2 0 -9 -48 -33
-67 -33 -7 0 -13 -4 -13 -9 0 -5 -13 -14 -30 -21 -16 -7 -30 -16 -30 -20 0 -4
-11 -11 -25 -14 -14 -4 -25 -11 -25 -16 0 -6 -7 -10 -15 -10 -8 0 -15 -4 -15
-10 0 -5 -7 -10 -17 -10 -9 0 -13 -3 -10 -7 4 -3 -12 -20 -35 -37 -51 -38
-108 -94 -166 -166 -25 -30 -51 -59 -59 -63 -7 -5 -11 -12 -8 -16 2 -5 -8 -21
-23 -37 -15 -15 -20 -24 -12 -19 11 6 10 3 -2 -12 -10 -11 -18 -24 -18 -30 0
-6 -4 -13 -8 -15 -10 -4 -62 -111 -62 -126 0 -7 -4 -12 -10 -12 -5 0 -9 -3 -9
-7 1 -5 0 -11 -1 -15 -6 -19 -8 -25 -15 -55 -4 -18 -12 -33 -17 -33 -5 0 -7
-4 -3 -9 3 -5 -1 -29 -9 -53 -14 -41 -24 -94 -29 -148 -1 -14 -6 -31 -10 -37
-5 -8 -3 -13 5 -13 8 0 9 -3 3 -8 -6 -4 -12 -47 -13 -96 -3 -70 -1 -87 10 -81
10 6 10 5 1 -5 -7 -8 -8 -22 -3 -40 5 -16 6 -31 3 -34 -3 -3 0 -12 7 -21 9
-11 9 -15 1 -15 -7 0 -9 -5 -6 -10 4 -6 8 -22 11 -35 8 -49 13 -71 23 -104 6
-19 8 -38 5 -42 -3 -5 2 -12 10 -15 9 -3 14 -10 11 -14 -3 -5 1 -24 9 -42 22
-49 29 -72 27 -81 0 -4 5 -10 13 -13 9 -3 12 -12 9 -21 -4 -10 -2 -14 4 -10 6
4 13 -5 16 -22 3 -16 13 -36 22 -44 8 -9 15 -18 15 -22 0 -10 63 -99 72 -103
4 -2 8 -8 8 -13 0 -14 153 -179 166 -179 3 0 23 -18 45 -41 21 -22 43 -38 49
-34 5 3 10 -1 10 -9 0 -9 7 -16 15 -16 9 0 18 -6 21 -14 3 -8 12 -12 20 -9 8
3 14 0 14 -6 0 -6 17 -19 38 -29 20 -9 39 -19 42 -22 5 -6 63 -32 67 -31 2 0
19 -8 39 -19 19 -11 39 -18 45 -15 5 4 9 1 9 -5 0 -6 5 -8 10 -5 6 3 10 2 10
-3 0 -6 7 -13 16 -16 10 -4 13 -2 8 7 -5 7 0 5 11 -3 10 -8 20 -14 22 -12 1 1
4 2 6 1 19 -6 46 -10 60 -10 9 0 17 -5 17 -11 0 -5 7 -8 15 -4 8 3 15 0 15 -7
0 -8 3 -8 9 2 6 9 10 10 16 2 5 -9 11 -9 23 1 10 8 13 9 9 1 -4 -6 -3 -14 2
-17 5 -4 12 -2 16 4 4 7 12 7 25 0 11 -6 31 -8 45 -6 14 3 25 1 25 -3 0 -5 37
-7 83 -5 45 2 95 4 111 4 15 0 35 5 43 12 11 9 16 9 22 -1 11 -17 20 -16 38 6
8 10 12 12 8 6 -7 -15 11 -18 20 -3 4 6 11 7 17 4 6 -4 14 0 19 7 7 11 9 11 9
1 0 -8 5 -10 13 -5 6 4 21 9 31 10 11 2 26 9 35 16 11 9 13 9 8 0 -5 -8 2 -7
20 2 15 8 38 15 51 15 15 0 21 4 16 12 -5 8 -2 9 9 5 9 -3 22 -1 29 6 7 7 18
12 23 12 16 1 69 28 77 40 4 5 8 6 8 2 0 -5 13 1 29 12 16 12 32 21 36 21 10
0 109 72 113 82 2 5 8 6 13 2 5 -3 12 2 15 10 3 9 13 16 21 16 8 0 11 5 8 10
-3 6 1 10 10 10 9 0 13 5 10 10 -3 6 -2 10 4 10 14 0 125 111 134 133 4 10 11
15 17 12 5 -3 10 0 10 8 0 7 9 23 20 35 12 12 18 22 15 22 -5 0 17 29 43 56 7
8 11 14 7 14 -3 0 6 17 20 37 14 21 25 43 25 50 0 7 5 13 11 13 6 0 9 6 6 14
-3 8 -2 16 3 18 5 2 10 10 12 18 2 8 7 18 11 21 4 3 9 16 10 27 1 12 5 22 9
22 4 0 8 11 8 25 0 14 4 25 8 25 8 0 10 7 14 50 1 11 6 20 11 20 4 0 5 5 2 10
-3 6 -3 16 2 23 4 6 9 23 11 37 1 14 7 37 12 53 6 19 6 27 -3 27 -8 0 -8 3 -2
8 6 4 11 18 13 32 7 49 9 255 3 265 -5 10 -6 18 -9 73 -1 18 -6 31 -11 28 -4
-3 -6 6 -3 19 2 14 -2 33 -9 42 -10 12 -10 15 -1 9 9 -5 10 -2 3 16 -19 47
-24 63 -26 78 -1 8 -9 33 -18 54 -10 22 -20 50 -23 63 -4 13 -10 23 -16 23 -5
0 -7 4 -3 9 3 5 1 12 -5 16 -6 4 -8 11 -5 16 4 5 2 9 -3 9 -4 0 -14 16 -22 35
-8 19 -17 35 -22 35 -4 0 -8 7 -8 15 0 8 -4 15 -9 15 -5 0 -11 8 -15 18 -7 21
-25 49 -48 76 -10 11 -18 24 -18 28 0 5 -4 6 -10 3 -5 -3 -10 -2 -10 4 0 24
-166 191 -191 191 -5 0 -8 4 -4 9 3 5 -4 12 -15 16 -11 3 -20 11 -20 17 0 6
-3 9 -6 5 -3 -3 -15 3 -27 14 -11 10 -27 19 -34 19 -7 0 -13 4 -13 8 0 5 -21
20 -47 33 -27 13 -51 28 -54 32 -3 5 -10 9 -15 9 -5 0 -20 5 -34 11 -14 6 -28
10 -32 9 -5 -1 -8 2 -8 8 0 6 -3 9 -7 8 -5 -1 -20 4 -36 10 -15 7 -38 14 -51
16 -14 2 -33 9 -44 15 -11 6 -22 7 -26 4 -3 -3 -6 -2 -6 3 0 5 -17 10 -37 12
-20 1 -41 8 -45 15 -6 9 -8 9 -8 -1 0 -10 -5 -10 -20 -2 -11 6 -20 8 -20 4 0
-3 -7 -1 -15 6 -10 8 -15 9 -15 2 0 -11 -9 -10 -47 5 -32 11 -43 11 -37 1 5
-7 2 -8 -6 -3 -16 10 -171 15 -166 6z m118 -373 c39 0 58 -3 58 -11 0 -8 3 -7
9 2 5 8 14 10 22 5 8 -4 27 -9 44 -11 31 -3 68 -10 73 -13 1 -2 5 -3 10 -4 41
-9 102 -32 102 -40 0 -5 3 -6 7 -3 3 4 12 2 20 -4 7 -6 13 -8 13 -3 0 5 4 3 9
-4 4 -7 16 -14 25 -16 10 -1 21 -8 25 -15 5 -7 10 -12 12 -11 10 4 46 -16 69
-37 14 -13 30 -23 36 -23 15 0 54 -47 46 -56 -4 -4 -2 -4 4 -1 10 6 114 -96
114 -113 0 -4 4 -10 8 -12 12 -5 72 -95 72 -108 0 -6 7 -18 15 -26 8 -9 15
-24 15 -35 0 -13 4 -18 12 -13 7 4 8 3 4 -5 -4 -6 -3 -18 4 -26 6 -7 13 -26
16 -41 3 -15 8 -32 12 -38 7 -13 10 -26 18 -86 4 -25 10 -50 15 -56 5 -6 6
-14 2 -18 -10 -9 -13 -36 -4 -36 9 0 7 -112 -3 -128 -4 -7 -2 -12 6 -12 8 0 9
-3 3 -8 -5 -4 -11 -16 -11 -27 -1 -19 -6 -50 -20 -122 -3 -18 -11 -33 -16 -33
-5 0 -6 -5 -3 -10 4 -6 1 -17 -5 -25 -6 -8 -9 -18 -6 -24 3 -5 3 -11 -1 -13
-5 -1 -23 -32 -41 -68 -18 -36 -40 -77 -50 -91 -41 -62 -80 -108 -86 -102 -3
3 -6 1 -6 -4 0 -11 -65 -83 -75 -83 -3 0 -14 -8 -24 -18 -36 -33 -69 -57 -82
-60 -8 -2 -16 -7 -19 -10 -3 -4 -22 -16 -42 -27 -21 -11 -38 -24 -38 -30 0 -5
-5 -3 -10 5 -5 8 -10 10 -10 4 0 -10 -23 -22 -52 -28 -3 0 -10 -4 -14 -9 -4
-4 -18 -7 -31 -7 -12 0 -23 -4 -23 -8 0 -5 -10 -8 -22 -7 -31 3 -49 -5 -42
-17 4 -6 -2 -5 -14 1 -12 6 -23 7 -26 2 -4 -5 -14 -8 -24 -6 -9 1 -24 -1 -33
-6 -10 -5 -21 -3 -29 4 -7 7 -10 7 -7 2 8 -14 -105 -14 -115 0 -5 7 -8 7 -8 0
0 -14 -45 -12 -63 3 -10 9 -16 9 -25 0 -9 -9 -12 -9 -12 3 0 12 -2 12 -10 -1
-6 -9 -10 -11 -10 -3 0 7 -7 10 -15 7 -8 -4 -15 -1 -15 6 0 6 -5 8 -10 5 -5
-3 -10 -2 -10 4 0 6 -7 8 -15 5 -8 -3 -28 1 -45 9 -17 9 -28 12 -25 7 3 -6 -9
-2 -27 8 -18 9 -35 20 -36 25 -2 4 -8 4 -14 1 -6 -4 -13 -3 -17 2 -3 5 -15 14
-26 20 -83 44 -89 48 -164 114 -19 17 -39 30 -44 30 -6 0 -8 3 -5 6 7 6 -39
54 -52 54 -9 0 -14 14 -11 33 0 4 -6 7 -16 7 -9 0 -14 3 -10 6 3 3 -5 18 -18
32 -13 14 -22 29 -19 34 3 4 1 8 -4 8 -8 0 -66 104 -67 120 0 3 -5 12 -10 20
-5 8 -11 22 -12 31 -1 9 -8 29 -14 45 -7 16 -11 33 -10 38 1 5 -1 16 -5 25
-10 23 -13 39 -19 106 -3 33 -8 68 -11 79 -4 12 -2 16 5 12 8 -5 8 0 1 18 -5
14 -6 28 -1 30 10 6 8 37 -4 55 -5 9 -4 12 2 8 7 -4 13 11 17 41 6 55 13 97
16 97 1 0 4 11 6 25 3 13 11 28 19 33 8 4 12 14 9 22 -6 14 52 134 71 147 5 4
6 8 1 8 -4 0 8 20 28 44 20 24 36 49 36 55 0 6 7 11 15 11 8 0 14 4 13 8 -2 5
21 32 50 61 28 29 52 50 52 46 0 -4 9 3 20 16 10 13 19 21 20 17 0 -4 12 4 26
17 15 14 33 25 40 25 8 0 14 5 14 11 0 5 4 8 9 5 5 -3 12 1 15 10 4 9 9 14 13
11 3 -4 21 3 40 14 18 11 33 18 33 15 0 -4 17 2 39 13 21 11 41 17 45 14 3 -4
6 -1 6 5 0 7 5 12 11 12 5 0 7 -6 3 -12 -4 -7 1 -6 12 3 10 9 27 15 37 14 9
-2 17 1 17 6 0 5 10 7 23 5 12 -2 30 1 41 6 14 8 17 7 10 -4 -6 -10 -5 -11 7
-2 8 6 24 10 37 9 12 -1 22 2 22 7 0 5 5 6 12 2 6 -4 38 -7 70 -6z"/>
<path d="M1690 1730 c0 -6 -3 -9 -7 -8 -5 1 -22 -5 -39 -15 -17 -9 -34 -13
-38 -10 -3 4 -6 1 -6 -6 0 -8 -7 -11 -15 -7 -8 3 -15 1 -15 -4 0 -6 -7 -10
-15 -10 -8 0 -15 -5 -15 -11 0 -6 -6 -9 -14 -6 -8 3 -16 2 -18 -3 -2 -5 -10
-10 -18 -12 -8 -2 -21 -9 -29 -16 -7 -7 -20 -11 -27 -8 -8 3 -14 1 -14 -4 0
-5 -11 -12 -25 -16 -14 -3 -25 -10 -25 -15 0 -5 -3 -8 -7 -7 -21 4 -183 -74
-176 -85 3 -6 1 -7 -6 -3 -6 4 -18 2 -26 -4 -8 -7 -15 -10 -15 -6 0 3 -18 -5
-41 -20 -23 -14 -38 -20 -34 -14 4 6 -11 0 -33 -14 -22 -14 -43 -22 -46 -19
-3 4 -6 1 -6 -5 0 -7 -3 -11 -7 -10 -15 4 -91 -41 -97 -57 -8 -23 -8 -27 4
-20 6 3 10 1 10 -5 0 -6 5 -8 10 -5 6 3 10 0 10 -7 0 -10 2 -10 9 1 7 11 9 11
14 0 3 -11 7 -11 17 -2 15 14 43 5 33 -11 -4 -6 1 -5 10 2 9 8 21 11 26 8 5
-4 12 -2 16 3 3 6 12 8 20 5 8 -4 12 -11 8 -18 -4 -6 1 -5 10 2 9 8 21 11 26
8 5 -4 12 -2 16 3 3 6 12 8 20 5 8 -4 12 -11 8 -18 -5 -8 -3 -8 8 0 17 14 50
15 67 1 8 -6 12 -6 12 2 0 7 5 9 10 6 6 -4 7 -11 4 -17 -4 -6 -2 -8 3 -5 18
11 44 -29 52 -82 4 -28 5 -53 1 -56 -3 -2 -3 -29 0 -60 3 -31 2 -58 -2 -61 -5
-3 -6 -10 -3 -15 4 -5 7 -27 7 -49 0 -23 5 -40 12 -40 6 0 4 -5 -4 -10 -13 -9
-13 -10 0 -11 8 0 23 -2 32 -4 10 -2 17 0 16 3 -3 13 25 62 35 62 6 0 8 3 4 6
-3 4 5 28 18 54 13 26 21 50 18 54 -4 3 -1 6 5 6 7 0 12 9 12 20 0 11 4 20 8
20 4 0 14 17 21 38 8 20 23 50 34 66 13 18 15 26 6 21 -9 -5 -8 -1 4 12 9 11
14 23 10 26 -3 4 -1 7 5 7 7 0 11 3 10 8 -1 4 3 17 10 28 6 12 8 24 5 28 -3 3
-2 6 3 6 6 0 18 19 28 43 10 23 31 69 46 102 15 33 28 65 29 70 1 6 10 18 18
28 9 9 13 17 9 17 -3 0 3 18 14 40 11 23 18 45 15 49 -3 5 0 11 6 13 6 2 0 9
-15 16 -15 7 -26 8 -26 2z"/>
</g>
</svg>
